PathFileType	4	(X/Y/Z)	/Users/itak/Documents/Research/Walk-IL/dataset/trc/00173_00008.trc
DataRate	CameraRate	NumFrames	NumMarkers	Units	OrigDataRate	OrigDataStartFrame	OrigNumFrames
100.000000	100.000000	4	53	mm	100.000000	154	617
Frame#	Time	RPSI			LPSI			L3			STRN			T10			C7			CLAV			RBAK			LBAK			LSHO			LUPA			LAEL			LAOL			LWTS			LWPS			LFRA			LIFD			LHPS			LHTS			RSHO			RUPA			RAEL			RAOL			RWTS			RWPS			RFRA			RIFD			RHTS			RHPS			RBHD			LFHD			RFHD			LBHD			LHIP			RHIP			RASI			LASI			LKNE			LTHI			LANK			LTIP			LTOE			LMT1			LMT5			LHEE			RKNE			RTHI			RANK			RTIP			RTOE			RMT1			RMT5			RHEE			
		X1	Y1	Z1	X2	Y2	Z2	X3	Y3	Z3	X4	Y4	Z4	X5	Y5	Z5	X6	Y6	Z6	X7	Y7	Z7	X8	Y8	Z8	X9	Y9	Z9	X10	Y10	Z10	X11	Y11	Z11	X12	Y12	Z12	X13	Y13	Z13	X14	Y14	Z14	X15	Y15	Z15	X16	Y16	Z16	X17	Y17	Z17	X18	Y18	Z18	X19	Y19	Z19	X20	Y20	Z20	X21	Y21	Z21	X22	Y22	Z22	X23	Y23	Z23	X24	Y24	Z24	X25	Y25	Z25	X26	Y26	Z26	X27	Y27	Z27	X28	Y28	Z28	X29	Y29	Z29	X30	Y30	Z30	X31	Y31	Z31	X32	Y32	Z32	X33	Y33	Z33	X34	Y34	Z34	X35	Y35	Z35	X36	Y36	Z36	X37	Y37	Z37	X38	Y38	Z38	X39	Y39	Z39	X40	Y40	Z40	X41	Y41	Z41	X42	Y42	Z42	X43	Y43	Z43	X44	Y44	Z44	X45	Y45	Z45	X46	Y46	Z46	X47	Y47	Z47	X48	Y48	Z48	X49	Y49	Z49	X50	Y50	Z50	X51	Y51	Z51	X52	Y52	Z52	X53	Y53	Z53	

155	1.54	786.260498046875	1059.157470703125	295.7579650878906	783.5989990234375	1063.099975585938	172.2178955078125	787.0875854492188	1101.767333984375	236.6598663330078	1057.25927734375	1299.786499023438	223.3168029785156	763.571044921875	1258.767578125	231.0049133300781	835.2219848632812	1526.075561523438	213.7701568603516	1032.60400390625	1414.88916015625	212.5988922119141	767.2385864257812	1354.317504882812	326.8632507324219	825.3032836914062	1500.051147460938	113.5402221679688	899.4703369140625	1483.269409179688	33.87529373168945	861.0186157226562	1351.583374023438	-36.39855575561523	871.247314453125	1133.517700195312	-54.80549240112305	821.5263671875	1119.196899414062	17.58500099182129	995.0963745117188	910.3206787109375	-18.76657104492188	914.2023315429688	881.686767578125	-57.86737442016602	890.08447265625	1022.715759277344	-66.35723114013672	1021.832153320312	728.214111328125	9.72020149230957	940.2095336914062	813.4749145507812	-51.67083740234375	1010.945861816406	832.9638061523438	-37.70703887939453	904.2938232421875	1504.45654296875	394.1856994628906	884.0992431640625	1438.56884765625	464.7571105957031	868.0996704101562	1149.028564453125	518.1611328125	858.4899291992188	1141.471313476562	422.0112915039062	1006.044250488281	923.2019653320312	483.7532348632812	937.2670288085938	904.9580078125	536.6321411132812	894.8990478515625	1076.057861328125	533.2781982421875	1022.662963867188	737.075439453125	456.1220092773438	1034.5947265625	830.3030395507812	488.5365295410156	965.9598999023438	822.2970581054688	529.3438720703125	907.8189086914062	1691.12744140625	284.8207397460938	1056.379760742188	1722.26513671875	128.7196502685547	1075.317260742188	1728.299194335938	256.6495971679688	878.99853515625	1692.775024414062	150.1953430175781	885.4776000976562	996.1550903320312	50.90045928955078	942.7272338867188	1015.399169921875	416.4220581054688	1020.414916992188	1041.986694335938	358.4678039550781	1008.209228515625	1033.85009765625	100.4532165527344	932.040283203125	500.0697937011719	58.83480453491211	928.154052734375	643.9149169921875	37.12999725341797	835.0724487304688	39.38498306274414	30.84729766845703	888.2255859375	277.3881530761719	32.66951751708984	1052.56640625	37.3036003112793	52.54831695556641	1005.379089355469	40.10691452026367	100.9143142700195	940.58544921875	27.08193588256836	-12.35463047027588	783.867919921875	42.55307388305664	100.7972946166992	968.8231811523438	515.3107299804688	372.2448120117188	1003.112426757812	783.677490234375	416.0050048828125	857.2655639648438	39.36405563354492	358.7601318359375	975.8837280273438	393.3963012695312	349.8949584960938	1081.670532226562	38.98138046264648	330.46875	1025.984741210938	35.14149856567383	283.0870666503906	969.4940185546875	36.48603439331055	396.3531188964844	807.2498168945312	38.29610824584961	289.7717590332031	
156	1.55	784.2339477539062	1059.719482421875	297.5807800292969	781.3346557617188	1063.744506835938	174.2869262695312	785.265869140625	1102.428100585938	238.7276916503906	1056.254272460938	1299.536010742188	224.5842742919922	762.3834228515625	1259.59521484375	233.3989868164062	835.0136108398438	1526.608154296875	215.9993133544922	1031.984741210938	1414.755249023438	213.9926605224609	766.8152465820312	1355.072875976562	329.2730407714844	824.6638793945312	1500.7060546875	115.7203826904297	898.4230346679688	1483.68603515625	35.83507537841797	859.349609375	1352.1240234375	-34.29905700683594	868.9739379882812	1134.051147460938	-52.81116104125977	819.7628173828125	1119.69091796875	19.83236694335938	993.4374389648438	911.0335083007812	-17.72841644287109	912.289306640625	882.2747802734375	-56.18402862548828	887.8567504882812	1023.244323730469	-64.54922485351562	1020.7744140625	728.9878540039062	10.5512752532959	938.4512329101562	814.0906372070312	-50.18686294555664	1009.296325683594	833.7201538085938	-36.79064559936523	904.7218017578125	1504.6923828125	396.1298217773438	884.6012573242188	1438.832885742188	466.7520446777344	867.841064453125	1149.316650390625	520.0464477539062	857.8053588867188	1141.865112304688	423.945068359375	1005.005493164062	923.1058959960938	484.9474182128906	936.3563842773438	905.0154418945312	538.065185546875	894.475830078125	1076.2548828125	535.0040283203125	1021.025756835938	736.9562377929688	457.14794921875	1033.328857421875	830.1309204101562	489.5734558105469	964.8346557617188	822.297607421875	530.63330078125	908.0140380859375	1691.2958984375	286.4680480957031	1056.011596679688	1722.263061523438	129.8457183837891	1075.39599609375	1728.502807617188	257.6527404785156	878.7197265625	1692.736328125	151.9132690429688	881.8257446289062	996.8521728515625	52.07521057128906	941.468994140625	1015.271179199219	417.7918090820312	1018.851867675781	1041.799072265625	359.5615234375	1005.534057617188	1034.153442382812	101.5338745117188	931.0999145507812	500.5159912109375	59.08660507202148	926.4056396484375	644.4404296875	37.69643020629883	835.1023559570312	39.41255950927734	30.85125541687012	887.6094360351562	277.7171325683594	32.75351333618164	1052.5341796875	37.2570915222168	52.42632675170898	1005.411682128906	40.22579956054688	100.8002471923828	940.5827026367188	27.00745010375977	-12.45058727264404	784.0333251953125	42.7197265625	100.843132019043	968.4171142578125	515.2752685546875	372.6932678222656	1001.895629882812	783.587890625	416.8308715820312	857.3480224609375	39.46613311767578	358.7310791015625	975.7247924804688	393.4184265136719	350.1683654785156	1081.723266601562	38.96804428100586	330.4356079101562	1026.01953125	35.0867919921875	283.0251770019531	969.5848999023438	36.60143661499023	396.1913146972656	807.3054809570312	38.32033920288086	289.7209167480469	
157	1.56	782.06396484375	1060.337646484375	299.4573059082031	778.9426879882812	1064.431030273438	176.4225769042969	783.3724365234375	1103.113647460938	240.9084320068359	1055.21337890625	1299.240478515625	225.8406524658203	761.1461791992188	1260.471435546875	235.9041137695312	834.8439331054688	1527.162719726562	218.2880706787109	1031.367065429688	1414.588134765625	215.3880004882812	766.4282836914062	1355.875122070312	331.7807006835938	824.0140380859375	1501.374877929688	117.9758453369141	897.3458862304688	1484.107299804688	37.84608459472656	857.614013671875	1352.685180664062	-32.14463424682617	866.6016845703125	1134.617309570312	-50.82097244262695	817.9259643554688	1120.209228515625	22.11728096008301	991.6856079101562	911.8030395507812	-16.74990272521973	910.2568359375	882.877685546875	-54.49961471557617	885.5108032226562	1023.800170898438	-62.73886108398438	1019.622192382812	729.7978515625	11.3477954864502	936.5906372070312	814.7332153320312	-48.71400833129883	1007.537658691406	834.4986572265625	-35.91239929199219	905.2420654296875	1504.928955078125	398.108642578125	885.2036743164062	1439.108032226562	468.7914733886719	867.6158447265625	1149.619018554688	521.9849853515625	857.129150390625	1142.26708984375	425.9522094726562	1003.959777832031	923.0159912109375	486.1292724609375	935.4434814453125	905.0770263671875	539.4973754882812	894.07666015625	1076.457153320312	536.7687377929688	1019.354736328125	736.8441162109375	458.1325988769531	1032.033813476562	829.9586791992188	490.5790100097656	963.707275390625	822.2985229492188	531.905517578125	908.2625732421875	1691.436889648438	288.1429138183594	1055.620483398438	1722.246704101562	130.9553833007812	1075.503784179688	1728.704345703125	258.6245727539062	878.4469604492188	1692.668701171875	153.6659851074219	878.206298828125	997.5770263671875	53.35978317260742	940.1676635742188	1015.113708496094	419.13720703125	1017.264770507812	1041.566650390625	360.6152954101562	1002.649291992188	1034.462524414062	102.5835494995117	930.0877685546875	500.9759826660156	59.32053756713867	924.4693603515625	644.9839477539062	38.22351455688477	835.132568359375	39.43498229980469	30.86812973022461	886.9935302734375	278.0595397949219	32.86319351196289	1052.49365234375	37.2147331237793	52.27930450439453	1005.452392578125	40.35713958740234	100.6733169555664	940.5914916992188	26.94349670410156	-12.53264904022217	784.2156982421875	42.89325714111328	100.8982162475586	967.8902587890625	515.2494506835938	373.1670532226562	1000.546203613281	783.4976196289062	417.6627807617188	857.408935546875	39.52114486694336	358.7137451171875	975.4556884765625	393.4444885253906	350.4715270996094	1081.76416015625	38.95565032958984	330.398193359375	1026.044189453125	35.04286575317383	282.9786376953125	969.6619873046875	36.69555282592773	396.0538330078125	807.3412475585938	38.3180046081543	289.6940002441406	
158	1.57	779.8173828125	1061.0087890625	301.4073791503906	776.4228515625	1065.172485351562	178.6312561035156	781.4107666015625	1103.80615234375	243.2047271728516	1054.137329101562	1298.8974609375	227.0752716064453	759.865966796875	1261.394897460938	238.5156860351562	834.71337890625	1527.73779296875	220.6320190429688	1030.7490234375	1414.3837890625	216.7796020507812	766.0807495117188	1356.718872070312	334.3931884765625	823.346923828125	1502.052368164062	120.3097076416016	896.2293090820312	1484.528076171875	39.90273284912109	855.8062744140625	1353.262084960938	-29.93783760070801	864.1238403320312	1135.2060546875	-48.83372497558594	816.021728515625	1120.743774414062	24.43346977233887	989.8344116210938	912.6203002929688	-15.81634330749512	908.1085205078125	883.489501953125	-52.82329940795898	883.0494995117188	1024.378784179688	-60.92824554443359	1018.368408203125	730.6394653320312	12.11129570007324	934.6337890625	815.3968505859375	-47.26007080078125	1005.669555664062	835.2910766601562	-35.06765365600586	905.8566284179688	1505.163452148438	400.11572265625	885.902099609375	1439.39404296875	470.8687438964844	867.4309692382812	1149.933349609375	523.98193359375	856.4557495117188	1142.682861328125	428.031982421875	1002.908142089844	922.932373046875	487.2966003417969	934.534423828125	905.1428833007812	540.9299926757812	893.7047729492188	1076.660400390625	538.5751342773438	1017.64697265625	736.7400512695312	459.0711364746094	1030.711669921875	829.7872924804688	491.5480041503906	962.574462890625	822.2977905273438	533.158203125	908.56103515625	1691.54736328125	289.837646484375	1055.211791992188	1722.210571289062	132.0415344238281	1075.638793945312	1728.895385742188	259.5680541992188	878.180908203125	1692.576416015625	155.4520416259766	874.5615844726562	998.328125	54.7430419921875	938.8184204101562	1014.932250976562	420.4543151855469	1015.653686523438	1041.285400390625	361.6154479980469	999.5492553710938	1034.769653320312	103.5921783447266	929.0425415039062	501.4437561035156	59.52423858642578	922.3593139648438	645.5363159179688	38.69616317749023	835.16748046875	39.44583129882812	30.89542961120605	886.3988037109375	278.4138793945312	32.99771499633789	1052.444091796875	37.18594360351562	52.10834121704102	1005.502258300781	40.50683975219727	100.5331726074219	940.6213989257812	26.89132690429688	-12.59421062469482	784.4149780273438	43.06507873535156	100.9593276977539	967.2354736328125	515.23095703125	373.6571044921875	999.0880737304688	783.4202880859375	418.4655151367188	857.4443969726562	39.52505874633789	358.7081298828125	975.0635375976562	393.4703979492188	350.8031005859375	1081.791625976562	38.94130325317383	330.3614807128906	1026.057983398438	35.00918197631836	282.9454345703125	969.7200927734375	36.76493453979492	395.9485168457031	807.3552856445312	38.28398895263672	289.6925048828125	
